<?xml version="1.0" encoding="utf-8"?>
<svg xmlns="http://www.w3.org/2000/svg"
	xmlns:xlink="http://www.w3.org/1999/xlink"
	width="39px" height="39px" viewBox="0 0 39 39">
<path fillRule="evenodd" d="M 31.97 14.05C 28.09 14.05 24.94 10.91 24.94 7.02 24.94 3.14 28.09-0 31.97-0 35.85-0 39 3.14 39 7.02 39 10.91 35.85 14.05 31.97 14.05ZM 19 26.46C 15.12 26.46 11.97 23.32 11.97 19.43 11.97 15.55 15.12 12.41 19 12.41 22.88 12.41 26.03 15.55 26.03 19.43 26.03 23.32 22.88 26.46 19 26.46ZM 7.02 14.05C 3.14 14.05-0.01 10.91-0.01 7.02-0.01 3.14 3.14-0 7.02-0 10.9-0 14.05 3.14 14.05 7.02 14.05 10.91 10.9 14.05 7.02 14.05ZM 7.02 24.94C 10.9 24.94 14.05 28.09 14.05 31.97 14.05 35.85 10.9 39 7.02 39 3.14 39-0.01 35.85-0.01 31.97-0.01 28.09 3.14 24.94 7.02 24.94ZM 31.97 24.94C 35.85 24.94 39 28.09 39 31.97 39 35.85 35.85 39 31.97 39 28.09 39 24.94 35.85 24.94 31.97 24.94 28.09 28.09 24.94 31.97 24.94Z" fill="rgb(33,33,33)"/></svg>
