<?xml version="1.0" encoding="utf-8"?>
<svg xmlns="http://www.w3.org/2000/svg"
	xmlns:xlink="http://www.w3.org/1999/xlink"
	width="40px" height="40px" viewBox="0 0 40 40">
<path fillRule="evenodd" d="M 38 40C 38 40 2 40 2 40 0.9 40 0 39.1 0 38 0 38 0 28.95 0 28.95 0 28.95 40 36.21 40 36.21 40 36.21 40 38 40 38 40 39.1 39.1 40 38 40ZM 0 12.66C 0 12.66 40 19.93 40 19.93 40 19.93 40 27.34 40 27.34 40 27.34 0 20.07 0 20.07 0 20.07 0 12.66 0 12.66ZM 0 2C 0 0.9 0.9-0 2-0 2-0 38-0 38-0 39.1-0 40 0.9 40 2 40 2 40 11.05 40 11.05 40 11.05 0 3.79 0 3.79 0 3.79 0 2 0 2Z" fill="rgb(33,33,33)"/></svg>
