<?xml version="1.0" encoding="utf-8"?>
<svg xmlns="http://www.w3.org/2000/svg"
	xmlns:xlink="http://www.w3.org/1999/xlink"
	width="40px" height="40px" viewBox="0 0 40 40">
<path fillRule="evenodd" d="M 38 40C 38 40 2 40 2 40 0.9 40-0 39.1-0 38-0 38-0 29-0 29-0 29 40 29 40 29 40 29 40 38 40 38 40 39.1 39.1 40 38 40ZM-0 14C-0 14 40 14 40 14 40 14 40 26 40 26 40 26-0 26-0 26-0 26-0 14-0 14ZM-0 2C-0 0.9 0.9-0 2-0 2-0 38-0 38-0 39.1-0 40 0.9 40 2 40 2 40 11 40 11 40 11-0 11-0 11-0 11-0 2-0 2Z" fill="rgb(33,33,33)"/></svg>
