<?xml version="1.0" encoding="UTF-8" standalone="no"?>
<!-- Generator: Adobe Illustrator 18.1.1, SVG Export Plug-In . SVG Version: 6.00 Build 0)  -->

<svg
   xmlns:dc="http://purl.org/dc/elements/1.1/"
   xmlns:cc="http://creativecommons.org/ns#"
   xmlns:rdf="http://www.w3.org/1999/02/22-rdf-syntax-ns#"
   xmlns:svg="http://www.w3.org/2000/svg"
   xmlns="http://www.w3.org/2000/svg"
   xmlns:sodipodi="http://sodipodi.sourceforge.net/DTD/sodipodi-0.dtd"
   xmlns:inkscape="http://www.inkscape.org/namespaces/inkscape"
   version="1.1"
   width="33px"
   height="35px"
   id="svg2"
   inkscape:version="0.91 r13725"
   sodipodi:docname="tailShort.svg">
  <metadata
     id="metadata10">
    <rdf:RDF>
      <cc:Work
         rdf:about="">
        <dc:format>image/svg+xml</dc:format>
        <dc:type
           rdf:resource="http://purl.org/dc/dcmitype/StillImage" />
      </cc:Work>
    </rdf:RDF>
  </metadata>
  <defs
     id="defs8" />
  <sodipodi:namedview
     pagecolor="#ffffff"
     bordercolor="#666666"
     borderopacity="1"
     objecttolerance="10"
     gridtolerance="10"
     guidetolerance="10"
     inkscape:pageopacity="0"
     inkscape:pageshadow="2"
     inkscape:window-width="640"
     inkscape:window-height="480"
     id="namedview6"
     showgrid="false"
     inkscape:zoom="6.7428571"
     inkscape:cx="16.5"
     inkscape:cy="17.5"
     inkscape:window-x="203"
     inkscape:window-y="281"
     inkscape:window-maximized="0"
     inkscape:current-layer="svg2" />
  <path
     d="m 29.7,15.410169 c 0,0 -0.3,-0.3 -0.8,-0.6 -0.9,-0.6 -1.9,-0.9 -2.9,-0.9 -1.3,0.1 -2.6,0.9 -3.4,1.9 l 0,0 -1.9,2.4 c -4.1,-3.8 -9.4,-5.8 -15,-5.8 l -13.7,0 0,2.5 13.8,0 c 5.3,0 10.3,2.1 14,5.9 l 0.8,0.8 0.9,-0.6 c 1.4,-1 2.5,-2.3 3.4,-3.8 l 0,0 c 0.6,-0.9 1.8,-1 2.6,-0.4 0.8,0.6 0.9,1.6 0.5,2.4 0,0.1 -0.1,0.1 -0.1,0.3 l 0.1,0.1 c 0,0 0,0 0,0 l -0.1,-0.1 c -1.1,1.8 -2.5,3.3 -4.1,4.5 l -0.9,0.6 0.5,1 c 1.5,2.9 2.4,5.8 2.4,9.5 l 0.1,0 2.4,0 0.1,0 c 0,-3.8 -0.9,-6.8 -2.3,-9.8 1.6,-1.3 3,-2.9 4,-4.6 0,0 0,0 0,0 0.3,-0.5 0.5,-1.1 0.6,-1.7 0.2,-1.3 -0.1,-2.6 -1,-3.6 l 0,0 z"
     id="path4"
     inkscape:connector-curvature="0"
     style="fill:#2b2f31" />
</svg>
